<svg xmlns="http://www.w3.org/2000/svg" xmlns:xlink="http://www.w3.org/1999/xlink" width="200" zoomAndPan="magnify" viewBox="0 0 150 52.499999" height="70" preserveAspectRatio="xMidYMid meet" version="1.0"><defs><g/></defs><g fill="#000000" fill-opacity="1"><g transform="translate(60.843792, 18.459817)"><g><path d="M 9.015625 -10.59375 C 9.304688 -10.59375 9.519531 -10.5 9.65625 -10.3125 C 9.800781 -10.132812 9.875 -9.929688 9.875 -9.703125 C 9.875 -9.484375 9.800781 -9.273438 9.65625 -9.078125 C 9.519531 -8.890625 9.304688 -8.796875 9.015625 -8.796875 C 8.847656 -8.765625 8.738281 -8.734375 8.6875 -8.703125 C 8.363281 -8.628906 8.066406 -8.539062 7.796875 -8.4375 C 7.097656 -8.195312 6.394531 -7.925781 5.6875 -7.625 C 5.28125 -7.425781 4.878906 -7.222656 4.484375 -7.015625 C 4.085938 -6.816406 3.695312 -6.597656 3.3125 -6.359375 C 3.21875 -6.304688 3.125 -6.253906 3.03125 -6.203125 C 2.945312 -6.148438 2.863281 -6.09375 2.78125 -6.03125 C 3.6875 -5.519531 4.632812 -5.078125 5.625 -4.703125 C 6.625 -4.335938 7.601562 -3.925781 8.5625 -3.46875 C 8.789062 -3.34375 8.9375 -3.15625 9 -2.90625 C 9.0625 -2.664062 9.03125 -2.441406 8.90625 -2.234375 C 8.769531 -2.003906 8.582031 -1.863281 8.34375 -1.8125 C 8.113281 -1.757812 7.890625 -1.789062 7.671875 -1.90625 C 7.097656 -2.175781 6.515625 -2.429688 5.921875 -2.671875 C 5.328125 -2.910156 4.734375 -3.144531 4.140625 -3.375 C 3.554688 -3.613281 2.96875 -3.859375 2.375 -4.109375 C 1.789062 -4.367188 1.222656 -4.65625 0.671875 -4.96875 C 0.472656 -5.070312 0.332031 -5.25 0.25 -5.5 C 0.175781 -5.757812 0.210938 -5.988281 0.359375 -6.1875 C 0.628906 -6.539062 0.9375 -6.859375 1.28125 -7.140625 C 1.625 -7.429688 1.988281 -7.695312 2.375 -7.9375 C 2.769531 -8.175781 3.171875 -8.394531 3.578125 -8.59375 C 3.992188 -8.789062 4.398438 -8.976562 4.796875 -9.15625 C 5.222656 -9.351562 5.65625 -9.535156 6.09375 -9.703125 C 6.53125 -9.878906 6.96875 -10.050781 7.40625 -10.21875 C 7.65625 -10.289062 7.914062 -10.367188 8.1875 -10.453125 C 8.46875 -10.535156 8.742188 -10.582031 9.015625 -10.59375 Z M 9.015625 -10.59375 "/></g></g></g><g fill="#000000" fill-opacity="1"><g transform="translate(71.18587, 18.459817)"><g><path d="M 6.75 -16.9375 C 6.882812 -17.1875 7.066406 -17.332031 7.296875 -17.375 C 7.523438 -17.414062 7.734375 -17.378906 7.921875 -17.265625 C 8.109375 -17.148438 8.25 -16.976562 8.34375 -16.75 C 8.445312 -16.53125 8.429688 -16.289062 8.296875 -16.03125 C 7.617188 -14.71875 7 -13.375 6.4375 -12 C 5.875 -10.625 5.332031 -9.242188 4.8125 -7.859375 C 4.289062 -6.472656 3.757812 -5.085938 3.21875 -3.703125 C 2.675781 -2.328125 2.082031 -0.972656 1.4375 0.359375 C 1.320312 0.585938 1.140625 0.726562 0.890625 0.78125 C 0.640625 0.832031 0.410156 0.796875 0.203125 0.671875 C -0.0234375 0.554688 -0.164062 0.378906 -0.21875 0.140625 C -0.269531 -0.0976562 -0.234375 -0.328125 -0.109375 -0.546875 C 0.535156 -1.878906 1.125 -3.234375 1.65625 -4.609375 C 2.195312 -5.992188 2.726562 -7.378906 3.25 -8.765625 C 3.78125 -10.148438 4.328125 -11.523438 4.890625 -12.890625 C 5.453125 -14.265625 6.070312 -15.613281 6.75 -16.9375 Z M 6.75 -16.9375 "/></g></g></g><g fill="#000000" fill-opacity="1"><g transform="translate(79.369602, 18.459817)"><g><path d="M 5.484375 -9.203125 C 6.191406 -8.941406 6.867188 -8.640625 7.515625 -8.296875 C 8.171875 -7.960938 8.757812 -7.53125 9.28125 -7 C 9.445312 -6.832031 9.535156 -6.613281 9.546875 -6.34375 C 9.566406 -6.082031 9.476562 -5.875 9.28125 -5.71875 C 8.695312 -5.238281 8.0625 -4.835938 7.375 -4.515625 C 6.695312 -4.191406 6.023438 -3.847656 5.359375 -3.484375 C 4.828125 -3.179688 4.304688 -2.875 3.796875 -2.5625 C 3.285156 -2.25 2.773438 -1.9375 2.265625 -1.625 C 2.015625 -1.46875 1.78125 -1.429688 1.5625 -1.515625 C 1.34375 -1.597656 1.175781 -1.738281 1.0625 -1.9375 C 0.957031 -2.132812 0.914062 -2.351562 0.9375 -2.59375 C 0.96875 -2.832031 1.101562 -3.023438 1.34375 -3.171875 C 1.875 -3.484375 2.394531 -3.796875 2.90625 -4.109375 C 3.414062 -4.429688 3.929688 -4.734375 4.453125 -5.015625 C 4.890625 -5.265625 5.347656 -5.492188 5.828125 -5.703125 C 6.304688 -5.921875 6.765625 -6.15625 7.203125 -6.40625 C 6.835938 -6.664062 6.453125 -6.878906 6.046875 -7.046875 C 5.640625 -7.222656 5.222656 -7.382812 4.796875 -7.53125 C 4.160156 -7.757812 3.546875 -7.988281 2.953125 -8.21875 C 2.359375 -8.445312 1.742188 -8.644531 1.109375 -8.8125 C 0.816406 -8.882812 0.625 -9.03125 0.53125 -9.25 C 0.445312 -9.46875 0.429688 -9.679688 0.484375 -9.890625 C 0.546875 -10.109375 0.671875 -10.285156 0.859375 -10.421875 C 1.046875 -10.566406 1.285156 -10.609375 1.578125 -10.546875 C 2.253906 -10.378906 2.910156 -10.164062 3.546875 -9.90625 C 4.179688 -9.65625 4.828125 -9.421875 5.484375 -9.203125 Z M 5.484375 -9.203125 "/></g></g></g><g fill="#000000" fill-opacity="1"><g transform="translate(2.297474, 41.233101)"><g><path d="M 7.84375 -7.84375 C 8.132812 -7.84375 8.347656 -7.753906 8.484375 -7.578125 C 8.628906 -7.398438 8.703125 -7.195312 8.703125 -6.96875 C 8.703125 -6.75 8.628906 -6.546875 8.484375 -6.359375 C 8.347656 -6.171875 8.132812 -6.078125 7.84375 -6.078125 C 7.488281 -6.054688 7.132812 -6.054688 6.78125 -6.078125 C 6.425781 -6.109375 6.078125 -6.132812 5.734375 -6.15625 C 5.753906 -4.976562 5.734375 -3.796875 5.671875 -2.609375 C 5.617188 -1.421875 5.5 -0.242188 5.3125 0.921875 C 5.28125 1.171875 5.144531 1.359375 4.90625 1.484375 C 4.664062 1.609375 4.429688 1.628906 4.203125 1.546875 C 3.953125 1.472656 3.773438 1.332031 3.671875 1.125 C 3.578125 0.925781 3.550781 0.703125 3.59375 0.453125 C 3.78125 -0.691406 3.882812 -1.832031 3.90625 -2.96875 C 3.925781 -4.101562 3.921875 -5.25 3.890625 -6.40625 C 3.316406 -6.5 2.738281 -6.59375 2.15625 -6.6875 C 1.570312 -6.789062 0.992188 -6.878906 0.421875 -6.953125 C 0.171875 -6.984375 -0.0078125 -7.117188 -0.125 -7.359375 C -0.238281 -7.609375 -0.265625 -7.835938 -0.203125 -8.046875 C -0.128906 -8.304688 0.0078125 -8.484375 0.21875 -8.578125 C 0.4375 -8.679688 0.664062 -8.71875 0.90625 -8.6875 C 1.394531 -8.601562 1.882812 -8.519531 2.375 -8.4375 C 2.875 -8.363281 3.378906 -8.285156 3.890625 -8.203125 C 3.878906 -8.285156 3.875 -8.398438 3.875 -8.546875 C 3.875 -9.898438 3.867188 -11.234375 3.859375 -12.546875 C 3.847656 -13.867188 3.910156 -15.203125 4.046875 -16.546875 C 4.078125 -16.785156 4.171875 -16.992188 4.328125 -17.171875 C 4.484375 -17.359375 4.691406 -17.453125 4.953125 -17.453125 C 5.171875 -17.453125 5.378906 -17.359375 5.578125 -17.171875 C 5.785156 -16.992188 5.875 -16.785156 5.84375 -16.546875 C 5.695312 -15.109375 5.625 -13.679688 5.625 -12.265625 C 5.632812 -10.847656 5.65625 -9.414062 5.6875 -7.96875 C 6.050781 -7.9375 6.410156 -7.90625 6.765625 -7.875 C 7.128906 -7.851562 7.488281 -7.84375 7.84375 -7.84375 Z M 7.84375 -7.84375 "/></g></g></g><g fill="#000000" fill-opacity="1"><g transform="translate(11.245621, 41.233101)"><g><path d="M 1.34375 -0.453125 C 1.132812 -0.523438 0.957031 -0.671875 0.8125 -0.890625 C 0.675781 -1.109375 0.65625 -1.328125 0.75 -1.546875 C 1 -2.253906 1.164062 -2.96875 1.25 -3.6875 C 1.34375 -4.40625 1.40625 -5.140625 1.4375 -5.890625 C 1.457031 -6.117188 1.46875 -6.335938 1.46875 -6.546875 C 1.46875 -6.765625 1.472656 -6.988281 1.484375 -7.21875 C 1.441406 -7.394531 1.457031 -7.566406 1.53125 -7.734375 C 1.5625 -8.171875 1.59375 -8.609375 1.625 -9.046875 C 1.65625 -9.492188 1.695312 -9.9375 1.75 -10.375 C 1.820312 -11.03125 1.898438 -11.679688 1.984375 -12.328125 C 2.066406 -12.984375 2.125 -13.648438 2.15625 -14.328125 C 2.1875 -14.941406 2.21875 -15.550781 2.25 -16.15625 C 2.289062 -16.769531 2.445312 -17.351562 2.71875 -17.90625 C 2.851562 -18.15625 3.03125 -18.296875 3.25 -18.328125 C 3.476562 -18.367188 3.691406 -18.332031 3.890625 -18.21875 C 4.085938 -18.113281 4.234375 -17.945312 4.328125 -17.71875 C 4.421875 -17.5 4.398438 -17.257812 4.265625 -17 C 4.148438 -16.75 4.066406 -16.488281 4.015625 -16.21875 C 3.972656 -15.945312 3.945312 -15.664062 3.9375 -15.375 C 3.9375 -15.09375 3.9375 -14.8125 3.9375 -14.53125 C 3.9375 -14.25 3.925781 -13.972656 3.90625 -13.703125 C 3.832031 -13.023438 3.757812 -12.351562 3.6875 -11.6875 C 3.613281 -11.019531 3.539062 -10.347656 3.46875 -9.671875 C 4.09375 -9.984375 4.789062 -10.15625 5.5625 -10.1875 C 6.15625 -10.207031 6.765625 -10.109375 7.390625 -9.890625 C 8.015625 -9.671875 8.519531 -9.320312 8.90625 -8.84375 C 9.132812 -8.550781 9.316406 -8.238281 9.453125 -7.90625 C 9.585938 -7.570312 9.691406 -7.21875 9.765625 -6.84375 C 9.847656 -6.476562 9.90625 -6.113281 9.9375 -5.75 C 9.96875 -5.382812 10 -5.023438 10.03125 -4.671875 C 10.070312 -3.972656 10.085938 -3.273438 10.078125 -2.578125 C 10.078125 -1.878906 10.0625 -1.171875 10.03125 -0.453125 C 10.03125 -0.160156 9.929688 0.0507812 9.734375 0.1875 C 9.546875 0.332031 9.335938 0.40625 9.109375 0.40625 C 8.878906 0.40625 8.675781 0.332031 8.5 0.1875 C 8.320312 0.0507812 8.238281 -0.160156 8.25 -0.453125 C 8.269531 -1.046875 8.285156 -1.644531 8.296875 -2.25 C 8.316406 -2.851562 8.3125 -3.453125 8.28125 -4.046875 C 8.25 -4.347656 8.222656 -4.65625 8.203125 -4.96875 C 8.191406 -5.28125 8.15625 -5.597656 8.09375 -5.921875 C 8.0625 -6.066406 8.035156 -6.207031 8.015625 -6.34375 C 7.992188 -6.488281 7.960938 -6.640625 7.921875 -6.796875 C 7.898438 -6.910156 7.859375 -7.035156 7.796875 -7.171875 C 7.753906 -7.304688 7.726562 -7.382812 7.71875 -7.40625 C 7.6875 -7.445312 7.660156 -7.484375 7.640625 -7.515625 C 7.628906 -7.554688 7.609375 -7.597656 7.578125 -7.640625 C 7.441406 -7.796875 7.359375 -7.878906 7.328125 -7.890625 C 7.273438 -7.941406 7.222656 -7.976562 7.171875 -8 C 7.128906 -8.019531 7.085938 -8.046875 7.046875 -8.078125 C 6.878906 -8.160156 6.6875 -8.234375 6.46875 -8.296875 C 6.257812 -8.359375 6.0625 -8.390625 5.875 -8.390625 C 5.363281 -8.421875 4.882812 -8.328125 4.4375 -8.109375 C 4 -7.898438 3.609375 -7.582031 3.265625 -7.15625 C 3.234375 -6.113281 3.175781 -5.085938 3.09375 -4.078125 C 3.019531 -3.066406 2.804688 -2.066406 2.453125 -1.078125 C 2.378906 -0.859375 2.238281 -0.679688 2.03125 -0.546875 C 1.832031 -0.410156 1.601562 -0.378906 1.34375 -0.453125 Z M 1.34375 -0.453125 "/></g></g></g><g fill="#000000" fill-opacity="1"><g transform="translate(22.352114, 41.233101)"><g><path d="M 1.6875 -8.734375 C 1.96875 -9.117188 2.304688 -9.460938 2.703125 -9.765625 C 3.109375 -10.066406 3.535156 -10.300781 3.984375 -10.46875 C 4.429688 -10.644531 4.894531 -10.734375 5.375 -10.734375 C 5.851562 -10.742188 6.332031 -10.648438 6.8125 -10.453125 C 7.28125 -10.273438 7.703125 -10.03125 8.078125 -9.71875 C 8.453125 -9.414062 8.742188 -9.023438 8.953125 -8.546875 C 9.117188 -8.179688 9.210938 -7.789062 9.234375 -7.375 C 9.265625 -6.957031 9.15625 -6.578125 8.90625 -6.234375 C 8.675781 -5.921875 8.398438 -5.679688 8.078125 -5.515625 C 7.765625 -5.347656 7.421875 -5.222656 7.046875 -5.140625 C 6.679688 -5.066406 6.304688 -5.03125 5.921875 -5.03125 C 5.546875 -5.03125 5.179688 -5.039062 4.828125 -5.0625 C 4.441406 -5.070312 4.054688 -5.097656 3.671875 -5.140625 C 3.296875 -5.191406 2.910156 -5.238281 2.515625 -5.28125 C 2.640625 -4.601562 2.878906 -4.003906 3.234375 -3.484375 C 3.597656 -2.960938 4.085938 -2.566406 4.703125 -2.296875 C 4.867188 -2.234375 4.992188 -2.1875 5.078125 -2.15625 C 5.128906 -2.144531 5.171875 -2.132812 5.203125 -2.125 C 5.242188 -2.113281 5.285156 -2.109375 5.328125 -2.109375 C 5.453125 -2.097656 5.554688 -2.085938 5.640625 -2.078125 C 5.722656 -2.066406 5.800781 -2.070312 5.875 -2.09375 C 5.976562 -2.101562 6.046875 -2.113281 6.078125 -2.125 C 6.117188 -2.132812 6.160156 -2.144531 6.203125 -2.15625 C 6.367188 -2.207031 6.515625 -2.257812 6.640625 -2.3125 C 6.773438 -2.375 6.929688 -2.472656 7.109375 -2.609375 C 7.203125 -2.679688 7.320312 -2.789062 7.46875 -2.9375 C 7.613281 -3.09375 7.738281 -3.226562 7.84375 -3.34375 C 8 -3.5625 8.1875 -3.707031 8.40625 -3.78125 C 8.625 -3.851562 8.84375 -3.820312 9.0625 -3.6875 C 9.257812 -3.570312 9.398438 -3.390625 9.484375 -3.140625 C 9.566406 -2.890625 9.53125 -2.660156 9.375 -2.453125 C 8.945312 -1.867188 8.4375 -1.367188 7.84375 -0.953125 C 7.25 -0.546875 6.566406 -0.328125 5.796875 -0.296875 C 5.179688 -0.265625 4.585938 -0.367188 4.015625 -0.609375 C 3.453125 -0.859375 2.953125 -1.195312 2.515625 -1.625 C 1.972656 -2.144531 1.546875 -2.75 1.234375 -3.4375 C 0.921875 -4.125 0.75 -4.832031 0.71875 -5.5625 C 0.582031 -5.664062 0.476562 -5.796875 0.40625 -5.953125 C 0.34375 -6.109375 0.320312 -6.269531 0.34375 -6.4375 C 0.363281 -6.601562 0.421875 -6.753906 0.515625 -6.890625 C 0.609375 -7.035156 0.742188 -7.128906 0.921875 -7.171875 C 1.085938 -7.722656 1.34375 -8.242188 1.6875 -8.734375 Z M 7.078125 -8.1875 C 6.921875 -8.394531 6.664062 -8.582031 6.3125 -8.75 C 6.03125 -8.863281 5.695312 -8.921875 5.3125 -8.921875 C 4.9375 -8.921875 4.613281 -8.859375 4.34375 -8.734375 C 4 -8.566406 3.691406 -8.335938 3.421875 -8.046875 C 3.148438 -7.753906 2.929688 -7.425781 2.765625 -7.0625 C 3.128906 -7.019531 3.488281 -6.972656 3.84375 -6.921875 C 4.207031 -6.878906 4.566406 -6.851562 4.921875 -6.84375 C 5.117188 -6.84375 5.3125 -6.84375 5.5 -6.84375 C 5.695312 -6.84375 5.894531 -6.847656 6.09375 -6.859375 C 6.15625 -6.859375 6.210938 -6.859375 6.265625 -6.859375 C 6.316406 -6.867188 6.375 -6.875 6.4375 -6.875 C 6.570312 -6.90625 6.671875 -6.925781 6.734375 -6.9375 C 6.804688 -6.945312 6.878906 -6.96875 6.953125 -7 C 7.015625 -7.007812 7.085938 -7.03125 7.171875 -7.0625 C 7.242188 -7.09375 7.285156 -7.113281 7.296875 -7.125 C 7.316406 -7.144531 7.34375 -7.160156 7.375 -7.171875 L 7.4375 -7.4375 C 7.414062 -7.5 7.398438 -7.554688 7.390625 -7.609375 C 7.378906 -7.660156 7.359375 -7.710938 7.328125 -7.765625 C 7.316406 -7.804688 7.285156 -7.867188 7.234375 -7.953125 C 7.179688 -8.046875 7.128906 -8.125 7.078125 -8.1875 Z M 7.078125 -8.1875 "/></g></g></g><g fill="#000000" fill-opacity="1"><g transform="translate(32.446882, 41.233101)"><g><path d="M 3.421875 -8.203125 C 3.960938 -8.535156 4.539062 -8.820312 5.15625 -9.0625 C 5.78125 -9.300781 6.414062 -9.414062 7.0625 -9.40625 C 7 -10.675781 6.945312 -11.941406 6.90625 -13.203125 C 6.875 -14.460938 6.851562 -15.726562 6.84375 -17 C 6.84375 -17.289062 6.929688 -17.503906 7.109375 -17.640625 C 7.285156 -17.785156 7.484375 -17.859375 7.703125 -17.859375 C 7.929688 -17.859375 8.140625 -17.785156 8.328125 -17.640625 C 8.515625 -17.503906 8.609375 -17.289062 8.609375 -17 C 8.628906 -15.519531 8.664062 -14.03125 8.71875 -12.53125 C 8.78125 -11.039062 8.84375 -9.550781 8.90625 -8.0625 C 8.96875 -6.582031 9.015625 -5.097656 9.046875 -3.609375 C 9.078125 -2.117188 9.066406 -0.628906 9.015625 0.859375 C 9.003906 1.140625 8.898438 1.351562 8.703125 1.5 C 8.503906 1.65625 8.289062 1.734375 8.0625 1.734375 C 7.84375 1.734375 7.644531 1.660156 7.46875 1.515625 C 7.289062 1.367188 7.207031 1.148438 7.21875 0.859375 C 7.21875 0.753906 7.21875 0.644531 7.21875 0.53125 C 7.21875 0.425781 7.226562 0.320312 7.25 0.21875 C 7.09375 0.207031 6.941406 0.195312 6.796875 0.1875 C 6.660156 0.1875 6.523438 0.1875 6.390625 0.1875 C 6.210938 0.1875 6.03125 0.1875 5.84375 0.1875 C 5.664062 0.1875 5.492188 0.175781 5.328125 0.15625 C 4.941406 0.125 4.550781 0.0859375 4.15625 0.046875 C 3.769531 0.00390625 3.390625 -0.0820312 3.015625 -0.21875 C 2.640625 -0.375 2.285156 -0.5625 1.953125 -0.78125 C 1.628906 -1 1.359375 -1.285156 1.140625 -1.640625 C 0.898438 -2.015625 0.703125 -2.421875 0.546875 -2.859375 C 0.390625 -3.296875 0.328125 -3.742188 0.359375 -4.203125 C 0.390625 -4.671875 0.492188 -5.097656 0.671875 -5.484375 C 0.847656 -5.878906 1.078125 -6.238281 1.359375 -6.5625 C 1.640625 -6.894531 1.953125 -7.195312 2.296875 -7.46875 C 2.648438 -7.738281 3.023438 -7.984375 3.421875 -8.203125 Z M 7.265625 -1.546875 C 7.265625 -3.554688 7.21875 -5.578125 7.125 -7.609375 C 6.632812 -7.628906 6.144531 -7.539062 5.65625 -7.34375 C 5.164062 -7.144531 4.71875 -6.914062 4.3125 -6.65625 C 4.09375 -6.519531 3.847656 -6.363281 3.578125 -6.1875 C 3.316406 -6.019531 3.078125 -5.828125 2.859375 -5.609375 C 2.648438 -5.390625 2.476562 -5.148438 2.34375 -4.890625 C 2.207031 -4.640625 2.140625 -4.367188 2.140625 -4.078125 C 2.148438 -3.804688 2.207031 -3.515625 2.3125 -3.203125 C 2.414062 -2.898438 2.5625 -2.648438 2.75 -2.453125 C 2.925781 -2.253906 3.125 -2.101562 3.34375 -2 C 3.570312 -1.90625 3.816406 -1.832031 4.078125 -1.78125 C 4.367188 -1.71875 4.65625 -1.675781 4.9375 -1.65625 C 5.21875 -1.644531 5.503906 -1.632812 5.796875 -1.625 C 6.035156 -1.625 6.273438 -1.609375 6.515625 -1.578125 C 6.753906 -1.554688 7.003906 -1.546875 7.265625 -1.546875 Z M 7.265625 -1.546875 "/></g></g></g><g fill="#000000" fill-opacity="1"><g transform="translate(42.766478, 41.233101)"><g><path d="M 1.6875 -8.734375 C 1.96875 -9.117188 2.304688 -9.460938 2.703125 -9.765625 C 3.109375 -10.066406 3.535156 -10.300781 3.984375 -10.46875 C 4.429688 -10.644531 4.894531 -10.734375 5.375 -10.734375 C 5.851562 -10.742188 6.332031 -10.648438 6.8125 -10.453125 C 7.28125 -10.273438 7.703125 -10.03125 8.078125 -9.71875 C 8.453125 -9.414062 8.742188 -9.023438 8.953125 -8.546875 C 9.117188 -8.179688 9.210938 -7.789062 9.234375 -7.375 C 9.265625 -6.957031 9.15625 -6.578125 8.90625 -6.234375 C 8.675781 -5.921875 8.398438 -5.679688 8.078125 -5.515625 C 7.765625 -5.347656 7.421875 -5.222656 7.046875 -5.140625 C 6.679688 -5.066406 6.304688 -5.03125 5.921875 -5.03125 C 5.546875 -5.03125 5.179688 -5.039062 4.828125 -5.0625 C 4.441406 -5.070312 4.054688 -5.097656 3.671875 -5.140625 C 3.296875 -5.191406 2.910156 -5.238281 2.515625 -5.28125 C 2.640625 -4.601562 2.878906 -4.003906 3.234375 -3.484375 C 3.597656 -2.960938 4.085938 -2.566406 4.703125 -2.296875 C 4.867188 -2.234375 4.992188 -2.1875 5.078125 -2.15625 C 5.128906 -2.144531 5.171875 -2.132812 5.203125 -2.125 C 5.242188 -2.113281 5.285156 -2.109375 5.328125 -2.109375 C 5.453125 -2.097656 5.554688 -2.085938 5.640625 -2.078125 C 5.722656 -2.066406 5.800781 -2.070312 5.875 -2.09375 C 5.976562 -2.101562 6.046875 -2.113281 6.078125 -2.125 C 6.117188 -2.132812 6.160156 -2.144531 6.203125 -2.15625 C 6.367188 -2.207031 6.515625 -2.257812 6.640625 -2.3125 C 6.773438 -2.375 6.929688 -2.472656 7.109375 -2.609375 C 7.203125 -2.679688 7.320312 -2.789062 7.46875 -2.9375 C 7.613281 -3.09375 7.738281 -3.226562 7.84375 -3.34375 C 8 -3.5625 8.1875 -3.707031 8.40625 -3.78125 C 8.625 -3.851562 8.84375 -3.820312 9.0625 -3.6875 C 9.257812 -3.570312 9.398438 -3.390625 9.484375 -3.140625 C 9.566406 -2.890625 9.53125 -2.660156 9.375 -2.453125 C 8.945312 -1.867188 8.4375 -1.367188 7.84375 -0.953125 C 7.25 -0.546875 6.566406 -0.328125 5.796875 -0.296875 C 5.179688 -0.265625 4.585938 -0.367188 4.015625 -0.609375 C 3.453125 -0.859375 2.953125 -1.195312 2.515625 -1.625 C 1.972656 -2.144531 1.546875 -2.75 1.234375 -3.4375 C 0.921875 -4.125 0.75 -4.832031 0.71875 -5.5625 C 0.582031 -5.664062 0.476562 -5.796875 0.40625 -5.953125 C 0.34375 -6.109375 0.320312 -6.269531 0.34375 -6.4375 C 0.363281 -6.601562 0.421875 -6.753906 0.515625 -6.890625 C 0.609375 -7.035156 0.742188 -7.128906 0.921875 -7.171875 C 1.085938 -7.722656 1.34375 -8.242188 1.6875 -8.734375 Z M 7.078125 -8.1875 C 6.921875 -8.394531 6.664062 -8.582031 6.3125 -8.75 C 6.03125 -8.863281 5.695312 -8.921875 5.3125 -8.921875 C 4.9375 -8.921875 4.613281 -8.859375 4.34375 -8.734375 C 4 -8.566406 3.691406 -8.335938 3.421875 -8.046875 C 3.148438 -7.753906 2.929688 -7.425781 2.765625 -7.0625 C 3.128906 -7.019531 3.488281 -6.972656 3.84375 -6.921875 C 4.207031 -6.878906 4.566406 -6.851562 4.921875 -6.84375 C 5.117188 -6.84375 5.3125 -6.84375 5.5 -6.84375 C 5.695312 -6.84375 5.894531 -6.847656 6.09375 -6.859375 C 6.15625 -6.859375 6.210938 -6.859375 6.265625 -6.859375 C 6.316406 -6.867188 6.375 -6.875 6.4375 -6.875 C 6.570312 -6.90625 6.671875 -6.925781 6.734375 -6.9375 C 6.804688 -6.945312 6.878906 -6.96875 6.953125 -7 C 7.015625 -7.007812 7.085938 -7.03125 7.171875 -7.0625 C 7.242188 -7.09375 7.285156 -7.113281 7.296875 -7.125 C 7.316406 -7.144531 7.34375 -7.160156 7.375 -7.171875 L 7.4375 -7.4375 C 7.414062 -7.5 7.398438 -7.554688 7.390625 -7.609375 C 7.378906 -7.660156 7.359375 -7.710938 7.328125 -7.765625 C 7.316406 -7.804688 7.285156 -7.867188 7.234375 -7.953125 C 7.179688 -8.046875 7.128906 -8.125 7.078125 -8.1875 Z M 7.078125 -8.1875 "/></g></g></g><g fill="#000000" fill-opacity="1"><g transform="translate(52.861246, 41.233101)"><g><path d="M 2.5 -3.265625 C 2.375 -3.648438 2.265625 -4.046875 2.171875 -4.453125 C 2.078125 -4.859375 1.96875 -5.253906 1.84375 -5.640625 C 1.675781 -6.285156 1.429688 -6.929688 1.109375 -7.578125 C 0.941406 -7.910156 0.773438 -8.242188 0.609375 -8.578125 C 0.441406 -8.921875 0.320312 -9.269531 0.25 -9.625 C 0.1875 -9.90625 0.234375 -10.140625 0.390625 -10.328125 C 0.546875 -10.515625 0.726562 -10.640625 0.9375 -10.703125 C 1.15625 -10.765625 1.367188 -10.75 1.578125 -10.65625 C 1.785156 -10.570312 1.921875 -10.382812 1.984375 -10.09375 C 2.054688 -9.738281 2.175781 -9.398438 2.34375 -9.078125 C 2.519531 -8.765625 2.691406 -8.445312 2.859375 -8.125 C 3.023438 -7.78125 3.164062 -7.425781 3.28125 -7.0625 C 3.40625 -6.695312 3.519531 -6.335938 3.625 -5.984375 C 3.738281 -5.585938 3.84375 -5.179688 3.9375 -4.765625 C 4.039062 -4.359375 4.160156 -3.960938 4.296875 -3.578125 C 4.335938 -3.421875 4.382812 -3.269531 4.4375 -3.125 C 4.488281 -2.988281 4.546875 -2.847656 4.609375 -2.703125 C 4.753906 -3.128906 4.875 -3.503906 4.96875 -3.828125 C 5.0625 -4.148438 5.164062 -4.460938 5.28125 -4.765625 C 5.445312 -5.210938 5.601562 -5.65625 5.75 -6.09375 C 5.90625 -6.539062 6.039062 -7 6.15625 -7.46875 C 6.28125 -7.90625 6.367188 -8.34375 6.421875 -8.78125 C 6.484375 -9.226562 6.578125 -9.664062 6.703125 -10.09375 C 6.773438 -10.363281 6.921875 -10.539062 7.140625 -10.625 C 7.367188 -10.71875 7.585938 -10.734375 7.796875 -10.671875 C 8.015625 -10.617188 8.191406 -10.5 8.328125 -10.3125 C 8.472656 -10.125 8.507812 -9.894531 8.4375 -9.625 C 8.28125 -9.132812 8.171875 -8.632812 8.109375 -8.125 C 8.054688 -7.625 7.953125 -7.132812 7.796875 -6.65625 C 7.671875 -6.175781 7.519531 -5.695312 7.34375 -5.21875 C 7.164062 -4.75 7 -4.273438 6.84375 -3.796875 C 6.738281 -3.472656 6.628906 -3.132812 6.515625 -2.78125 C 6.410156 -2.425781 6.285156 -2.082031 6.140625 -1.75 C 6.003906 -1.425781 5.832031 -1.117188 5.625 -0.828125 C 5.414062 -0.546875 5.148438 -0.304688 4.828125 -0.109375 C 4.546875 0.0546875 4.285156 0.0703125 4.046875 -0.0625 C 3.804688 -0.195312 3.628906 -0.394531 3.515625 -0.65625 C 3.328125 -1.082031 3.144531 -1.515625 2.96875 -1.953125 C 2.800781 -2.390625 2.644531 -2.828125 2.5 -3.265625 Z M 2.5 -3.265625 "/></g></g></g><g fill="#000000" fill-opacity="1"><g transform="translate(61.78691, 41.233101)"><g><path d="M 7.84375 -7.84375 C 8.132812 -7.84375 8.347656 -7.753906 8.484375 -7.578125 C 8.628906 -7.398438 8.703125 -7.195312 8.703125 -6.96875 C 8.703125 -6.75 8.628906 -6.546875 8.484375 -6.359375 C 8.347656 -6.171875 8.132812 -6.078125 7.84375 -6.078125 C 7.488281 -6.054688 7.132812 -6.054688 6.78125 -6.078125 C 6.425781 -6.109375 6.078125 -6.132812 5.734375 -6.15625 C 5.753906 -4.976562 5.734375 -3.796875 5.671875 -2.609375 C 5.617188 -1.421875 5.5 -0.242188 5.3125 0.921875 C 5.28125 1.171875 5.144531 1.359375 4.90625 1.484375 C 4.664062 1.609375 4.429688 1.628906 4.203125 1.546875 C 3.953125 1.472656 3.773438 1.332031 3.671875 1.125 C 3.578125 0.925781 3.550781 0.703125 3.59375 0.453125 C 3.78125 -0.691406 3.882812 -1.832031 3.90625 -2.96875 C 3.925781 -4.101562 3.921875 -5.25 3.890625 -6.40625 C 3.316406 -6.5 2.738281 -6.59375 2.15625 -6.6875 C 1.570312 -6.789062 0.992188 -6.878906 0.421875 -6.953125 C 0.171875 -6.984375 -0.0078125 -7.117188 -0.125 -7.359375 C -0.238281 -7.609375 -0.265625 -7.835938 -0.203125 -8.046875 C -0.128906 -8.304688 0.0078125 -8.484375 0.21875 -8.578125 C 0.4375 -8.679688 0.664062 -8.71875 0.90625 -8.6875 C 1.394531 -8.601562 1.882812 -8.519531 2.375 -8.4375 C 2.875 -8.363281 3.378906 -8.285156 3.890625 -8.203125 C 3.878906 -8.285156 3.875 -8.398438 3.875 -8.546875 C 3.875 -9.898438 3.867188 -11.234375 3.859375 -12.546875 C 3.847656 -13.867188 3.910156 -15.203125 4.046875 -16.546875 C 4.078125 -16.785156 4.171875 -16.992188 4.328125 -17.171875 C 4.484375 -17.359375 4.691406 -17.453125 4.953125 -17.453125 C 5.171875 -17.453125 5.378906 -17.359375 5.578125 -17.171875 C 5.785156 -16.992188 5.875 -16.785156 5.84375 -16.546875 C 5.695312 -15.109375 5.625 -13.679688 5.625 -12.265625 C 5.632812 -10.847656 5.65625 -9.414062 5.6875 -7.96875 C 6.050781 -7.9375 6.410156 -7.90625 6.765625 -7.875 C 7.128906 -7.851562 7.488281 -7.84375 7.84375 -7.84375 Z M 7.84375 -7.84375 "/></g></g></g><g fill="#000000" fill-opacity="1"><g transform="translate(70.735056, 41.233101)"><g><path d="M 6.5 -10.375 C 6.976562 -10.425781 7.476562 -10.441406 8 -10.421875 C 8.53125 -10.398438 9.035156 -10.3125 9.515625 -10.15625 C 9.992188 -10 10.425781 -9.757812 10.8125 -9.4375 C 11.207031 -9.125 11.507812 -8.710938 11.71875 -8.203125 C 11.863281 -7.847656 11.941406 -7.484375 11.953125 -7.109375 C 11.960938 -6.742188 11.910156 -6.394531 11.796875 -6.0625 C 11.679688 -5.726562 11.515625 -5.40625 11.296875 -5.09375 C 11.078125 -4.789062 10.828125 -4.507812 10.546875 -4.25 C 9.929688 -3.695312 9.253906 -3.222656 8.515625 -2.828125 C 7.785156 -2.441406 7.015625 -2.144531 6.203125 -1.9375 C 5.859375 -1.84375 5.503906 -1.757812 5.140625 -1.6875 C 4.773438 -1.625 4.40625 -1.59375 4.03125 -1.59375 C 3.65625 -1.59375 3.285156 -1.632812 2.921875 -1.71875 C 2.566406 -1.800781 2.226562 -1.941406 1.90625 -2.140625 C 1.6875 -2.273438 1.550781 -2.453125 1.5 -2.671875 C 1.414062 -2.929688 1.320312 -3.171875 1.21875 -3.390625 C 1.113281 -3.617188 1.007812 -3.851562 0.90625 -4.09375 C 0.8125 -4.332031 0.734375 -4.570312 0.671875 -4.8125 C 0.609375 -5.050781 0.578125 -5.300781 0.578125 -5.5625 C 0.578125 -6.0625 0.6875 -6.539062 0.90625 -7 C 1.125 -7.457031 1.421875 -7.859375 1.796875 -8.203125 C 2.429688 -8.804688 3.160156 -9.285156 3.984375 -9.640625 C 4.804688 -10.003906 5.644531 -10.25 6.5 -10.375 Z M 9.046875 -8.4375 C 8.640625 -8.582031 8.203125 -8.65625 7.734375 -8.65625 C 7.242188 -8.675781 6.75 -8.628906 6.25 -8.515625 C 5.757812 -8.398438 5.285156 -8.242188 4.828125 -8.046875 C 4.410156 -7.878906 3.976562 -7.648438 3.53125 -7.359375 C 3.09375 -7.066406 2.769531 -6.710938 2.5625 -6.296875 C 2.445312 -6.066406 2.390625 -5.835938 2.390625 -5.609375 C 2.398438 -5.378906 2.4375 -5.144531 2.5 -4.90625 C 2.570312 -4.675781 2.664062 -4.445312 2.78125 -4.21875 C 2.894531 -3.988281 2.992188 -3.757812 3.078125 -3.53125 C 3.316406 -3.46875 3.46875 -3.4375 3.53125 -3.4375 C 3.5625 -3.425781 3.597656 -3.421875 3.640625 -3.421875 C 3.691406 -3.421875 3.726562 -3.421875 3.75 -3.421875 C 4.050781 -3.390625 4.320312 -3.394531 4.5625 -3.4375 C 4.726562 -3.4375 4.941406 -3.46875 5.203125 -3.53125 C 5.585938 -3.601562 5.957031 -3.703125 6.3125 -3.828125 C 6.675781 -3.960938 7.007812 -4.101562 7.3125 -4.25 C 7.65625 -4.414062 7.988281 -4.59375 8.3125 -4.78125 C 8.644531 -4.976562 8.925781 -5.179688 9.15625 -5.390625 C 9.300781 -5.523438 9.441406 -5.671875 9.578125 -5.828125 C 9.648438 -5.898438 9.703125 -5.957031 9.734375 -6 C 9.804688 -6.101562 9.863281 -6.179688 9.90625 -6.234375 C 9.957031 -6.285156 10 -6.351562 10.03125 -6.4375 C 10.09375 -6.539062 10.125 -6.625 10.125 -6.6875 C 10.132812 -6.707031 10.144531 -6.738281 10.15625 -6.78125 C 10.164062 -6.832031 10.175781 -6.875 10.1875 -6.90625 L 10.1875 -7.15625 C 10.175781 -7.21875 10.171875 -7.257812 10.171875 -7.28125 C 10.171875 -7.3125 10.160156 -7.34375 10.140625 -7.375 C 10.097656 -7.476562 10.054688 -7.554688 10.015625 -7.609375 C 9.984375 -7.660156 9.941406 -7.71875 9.890625 -7.78125 C 9.910156 -7.769531 9.894531 -7.789062 9.84375 -7.84375 C 9.789062 -7.90625 9.753906 -7.945312 9.734375 -7.96875 L 9.5625 -8.140625 C 9.488281 -8.179688 9.40625 -8.234375 9.3125 -8.296875 C 9.21875 -8.359375 9.128906 -8.40625 9.046875 -8.4375 Z M 9.046875 -8.4375 "/></g></g></g><g fill="#000000" fill-opacity="1"><g transform="translate(83.033137, 41.233101)"><g><path d="M 6.5 -10.375 C 6.976562 -10.425781 7.476562 -10.441406 8 -10.421875 C 8.53125 -10.398438 9.035156 -10.3125 9.515625 -10.15625 C 9.992188 -10 10.425781 -9.757812 10.8125 -9.4375 C 11.207031 -9.125 11.507812 -8.710938 11.71875 -8.203125 C 11.863281 -7.847656 11.941406 -7.484375 11.953125 -7.109375 C 11.960938 -6.742188 11.910156 -6.394531 11.796875 -6.0625 C 11.679688 -5.726562 11.515625 -5.40625 11.296875 -5.09375 C 11.078125 -4.789062 10.828125 -4.507812 10.546875 -4.25 C 9.929688 -3.695312 9.253906 -3.222656 8.515625 -2.828125 C 7.785156 -2.441406 7.015625 -2.144531 6.203125 -1.9375 C 5.859375 -1.84375 5.503906 -1.757812 5.140625 -1.6875 C 4.773438 -1.625 4.40625 -1.59375 4.03125 -1.59375 C 3.65625 -1.59375 3.285156 -1.632812 2.921875 -1.71875 C 2.566406 -1.800781 2.226562 -1.941406 1.90625 -2.140625 C 1.6875 -2.273438 1.550781 -2.453125 1.5 -2.671875 C 1.414062 -2.929688 1.320312 -3.171875 1.21875 -3.390625 C 1.113281 -3.617188 1.007812 -3.851562 0.90625 -4.09375 C 0.8125 -4.332031 0.734375 -4.570312 0.671875 -4.8125 C 0.609375 -5.050781 0.578125 -5.300781 0.578125 -5.5625 C 0.578125 -6.0625 0.6875 -6.539062 0.90625 -7 C 1.125 -7.457031 1.421875 -7.859375 1.796875 -8.203125 C 2.429688 -8.804688 3.160156 -9.285156 3.984375 -9.640625 C 4.804688 -10.003906 5.644531 -10.25 6.5 -10.375 Z M 9.046875 -8.4375 C 8.640625 -8.582031 8.203125 -8.65625 7.734375 -8.65625 C 7.242188 -8.675781 6.75 -8.628906 6.25 -8.515625 C 5.757812 -8.398438 5.285156 -8.242188 4.828125 -8.046875 C 4.410156 -7.878906 3.976562 -7.648438 3.53125 -7.359375 C 3.09375 -7.066406 2.769531 -6.710938 2.5625 -6.296875 C 2.445312 -6.066406 2.390625 -5.835938 2.390625 -5.609375 C 2.398438 -5.378906 2.4375 -5.144531 2.5 -4.90625 C 2.570312 -4.675781 2.664062 -4.445312 2.78125 -4.21875 C 2.894531 -3.988281 2.992188 -3.757812 3.078125 -3.53125 C 3.316406 -3.46875 3.46875 -3.4375 3.53125 -3.4375 C 3.5625 -3.425781 3.597656 -3.421875 3.640625 -3.421875 C 3.691406 -3.421875 3.726562 -3.421875 3.75 -3.421875 C 4.050781 -3.390625 4.320312 -3.394531 4.5625 -3.4375 C 4.726562 -3.4375 4.941406 -3.46875 5.203125 -3.53125 C 5.585938 -3.601562 5.957031 -3.703125 6.3125 -3.828125 C 6.675781 -3.960938 7.007812 -4.101562 7.3125 -4.25 C 7.65625 -4.414062 7.988281 -4.59375 8.3125 -4.78125 C 8.644531 -4.976562 8.925781 -5.179688 9.15625 -5.390625 C 9.300781 -5.523438 9.441406 -5.671875 9.578125 -5.828125 C 9.648438 -5.898438 9.703125 -5.957031 9.734375 -6 C 9.804688 -6.101562 9.863281 -6.179688 9.90625 -6.234375 C 9.957031 -6.285156 10 -6.351562 10.03125 -6.4375 C 10.09375 -6.539062 10.125 -6.625 10.125 -6.6875 C 10.132812 -6.707031 10.144531 -6.738281 10.15625 -6.78125 C 10.164062 -6.832031 10.175781 -6.875 10.1875 -6.90625 L 10.1875 -7.15625 C 10.175781 -7.21875 10.171875 -7.257812 10.171875 -7.28125 C 10.171875 -7.3125 10.160156 -7.34375 10.140625 -7.375 C 10.097656 -7.476562 10.054688 -7.554688 10.015625 -7.609375 C 9.984375 -7.660156 9.941406 -7.71875 9.890625 -7.78125 C 9.910156 -7.769531 9.894531 -7.789062 9.84375 -7.84375 C 9.789062 -7.90625 9.753906 -7.945312 9.734375 -7.96875 L 9.5625 -8.140625 C 9.488281 -8.179688 9.40625 -8.234375 9.3125 -8.296875 C 9.21875 -8.359375 9.128906 -8.40625 9.046875 -8.4375 Z M 9.046875 -8.4375 "/></g></g></g><g fill="#000000" fill-opacity="1"><g transform="translate(95.331218, 41.233101)"><g><path d="M 2.40625 -17.65625 C 2.675781 -17.65625 2.882812 -17.5625 3.03125 -17.375 C 3.1875 -17.195312 3.28125 -16.988281 3.3125 -16.75 C 3.457031 -15.332031 3.535156 -13.910156 3.546875 -12.484375 C 3.566406 -11.054688 3.550781 -9.628906 3.5 -8.203125 C 3.445312 -6.785156 3.367188 -5.363281 3.265625 -3.9375 C 3.160156 -2.507812 3.054688 -1.09375 2.953125 0.3125 C 2.921875 0.570312 2.820312 0.785156 2.65625 0.953125 C 2.5 1.128906 2.296875 1.21875 2.046875 1.21875 C 1.816406 1.21875 1.601562 1.128906 1.40625 0.953125 C 1.21875 0.785156 1.128906 0.570312 1.140625 0.3125 C 1.242188 -1.09375 1.351562 -2.507812 1.46875 -3.9375 C 1.582031 -5.363281 1.664062 -6.785156 1.71875 -8.203125 C 1.769531 -9.628906 1.785156 -11.054688 1.765625 -12.484375 C 1.753906 -13.910156 1.675781 -15.332031 1.53125 -16.75 C 1.5 -16.988281 1.578125 -17.195312 1.765625 -17.375 C 1.960938 -17.5625 2.175781 -17.65625 2.40625 -17.65625 Z M 2.40625 -17.65625 "/></g></g></g><g fill="#000000" fill-opacity="1"><g transform="translate(100.165015, 41.233101)"><g><path d="M 1.1875 5.765625 C 1.519531 6.078125 1.898438 6.296875 2.328125 6.421875 C 2.765625 6.546875 3.203125 6.585938 3.640625 6.546875 C 4.078125 6.503906 4.488281 6.375 4.875 6.15625 C 5.269531 5.945312 5.59375 5.65625 5.84375 5.28125 C 6.382812 4.519531 6.734375 3.675781 6.890625 2.75 C 7.046875 1.832031 7.109375 0.910156 7.078125 -0.015625 C 6.359375 0.0976562 5.617188 0.117188 4.859375 0.046875 C 4.109375 -0.015625 3.394531 -0.171875 2.71875 -0.421875 C 2.375 -0.554688 2.046875 -0.71875 1.734375 -0.90625 C 1.429688 -1.09375 1.191406 -1.359375 1.015625 -1.703125 C 0.703125 -2.296875 0.566406 -2.941406 0.609375 -3.640625 C 0.640625 -4.316406 0.753906 -4.972656 0.953125 -5.609375 C 1.160156 -6.242188 1.390625 -6.878906 1.640625 -7.515625 C 1.773438 -7.816406 1.921875 -8.132812 2.078125 -8.46875 C 2.234375 -8.800781 2.441406 -9.101562 2.703125 -9.375 C 2.953125 -9.664062 3.242188 -9.882812 3.578125 -10.03125 C 3.910156 -10.175781 4.265625 -10.265625 4.640625 -10.296875 C 4.578125 -10.503906 4.570312 -10.703125 4.625 -10.890625 C 4.6875 -11.078125 4.816406 -11.234375 5.015625 -11.359375 C 5.210938 -11.472656 5.441406 -11.5 5.703125 -11.4375 C 5.960938 -11.382812 6.144531 -11.253906 6.25 -11.046875 C 6.3125 -10.910156 6.367188 -10.773438 6.421875 -10.640625 C 6.472656 -10.503906 6.519531 -10.367188 6.5625 -10.234375 C 6.863281 -9.421875 7.140625 -8.601562 7.390625 -7.78125 C 7.640625 -6.957031 7.875 -6.125 8.09375 -5.28125 C 8.363281 -4.289062 8.566406 -3.285156 8.703125 -2.265625 C 8.835938 -1.253906 8.890625 -0.222656 8.859375 0.828125 C 8.847656 1.410156 8.800781 2.007812 8.71875 2.625 C 8.632812 3.238281 8.492188 3.832031 8.296875 4.40625 C 8.097656 4.976562 7.84375 5.519531 7.53125 6.03125 C 7.21875 6.550781 6.8125 7 6.3125 7.375 C 5.851562 7.738281 5.34375 8 4.78125 8.15625 C 4.21875 8.3125 3.644531 8.375 3.0625 8.34375 C 2.488281 8.3125 1.925781 8.179688 1.375 7.953125 C 0.832031 7.734375 0.351562 7.421875 -0.0625 7.015625 C -0.269531 6.816406 -0.359375 6.601562 -0.328125 6.375 C -0.304688 6.144531 -0.210938 5.953125 -0.046875 5.796875 C 0.109375 5.640625 0.300781 5.546875 0.53125 5.515625 C 0.757812 5.484375 0.976562 5.566406 1.1875 5.765625 Z M 3.6875 -2 C 4.207031 -1.863281 4.75 -1.769531 5.3125 -1.71875 C 5.875 -1.664062 6.421875 -1.703125 6.953125 -1.828125 C 6.859375 -2.585938 6.722656 -3.316406 6.546875 -4.015625 C 6.378906 -4.722656 6.191406 -5.4375 5.984375 -6.15625 C 5.859375 -6.582031 5.734375 -6.992188 5.609375 -7.390625 C 5.484375 -7.796875 5.351562 -8.203125 5.21875 -8.609375 C 5.175781 -8.578125 5.125 -8.554688 5.0625 -8.546875 C 5 -8.546875 4.929688 -8.539062 4.859375 -8.53125 C 4.410156 -8.53125 4.066406 -8.328125 3.828125 -7.921875 C 3.660156 -7.660156 3.523438 -7.390625 3.421875 -7.109375 C 3.390625 -7.035156 3.359375 -6.960938 3.328125 -6.890625 C 3.296875 -6.828125 3.265625 -6.757812 3.234375 -6.6875 C 3.015625 -6.144531 2.820312 -5.617188 2.65625 -5.109375 C 2.5 -4.609375 2.410156 -4.117188 2.390625 -3.640625 L 2.390625 -3.234375 C 2.398438 -3.128906 2.410156 -3.046875 2.421875 -2.984375 C 2.453125 -2.847656 2.472656 -2.765625 2.484375 -2.734375 C 2.492188 -2.710938 2.535156 -2.640625 2.609375 -2.515625 C 2.703125 -2.441406 2.785156 -2.378906 2.859375 -2.328125 C 2.929688 -2.285156 2.972656 -2.257812 2.984375 -2.25 C 3.109375 -2.207031 3.226562 -2.160156 3.34375 -2.109375 C 3.457031 -2.066406 3.570312 -2.03125 3.6875 -2 Z M 3.6875 -2 "/></g></g></g><g fill="#000000" fill-opacity="1"><g transform="translate(109.607783, 41.233101)"><g><path d="M 2.625 -0.609375 C 2.113281 -0.828125 1.710938 -1.132812 1.421875 -1.53125 C 1.128906 -1.9375 0.925781 -2.378906 0.8125 -2.859375 C 0.707031 -3.335938 0.675781 -3.832031 0.71875 -4.34375 C 0.757812 -4.863281 0.863281 -5.363281 1.03125 -5.84375 C 1.164062 -6.21875 1.316406 -6.609375 1.484375 -7.015625 C 1.660156 -7.421875 1.867188 -7.796875 2.109375 -8.140625 C 2.347656 -8.484375 2.632812 -8.78125 2.96875 -9.03125 C 3.300781 -9.28125 3.691406 -9.441406 4.140625 -9.515625 C 4.597656 -9.585938 5.0625 -9.613281 5.53125 -9.59375 C 6.007812 -9.570312 6.484375 -9.523438 6.953125 -9.453125 C 7.160156 -9.421875 7.359375 -9.367188 7.546875 -9.296875 C 7.742188 -9.234375 7.941406 -9.164062 8.140625 -9.09375 C 8.160156 -9.3125 8.265625 -9.492188 8.453125 -9.640625 C 8.640625 -9.796875 8.835938 -9.875 9.046875 -9.875 C 9.296875 -9.875 9.5 -9.785156 9.65625 -9.609375 C 9.8125 -9.441406 9.90625 -9.238281 9.9375 -9 C 10.007812 -8.3125 10.039062 -7.617188 10.03125 -6.921875 C 10.03125 -6.234375 10.007812 -5.546875 9.96875 -4.859375 C 9.9375 -4.171875 9.90625 -3.476562 9.875 -2.78125 C 9.851562 -2.09375 9.859375 -1.40625 9.890625 -0.71875 C 9.910156 -0.4375 9.828125 -0.222656 9.640625 -0.078125 C 9.453125 0.0664062 9.242188 0.140625 9.015625 0.140625 C 8.796875 0.140625 8.59375 0.0664062 8.40625 -0.078125 C 8.21875 -0.222656 8.113281 -0.4375 8.09375 -0.71875 C 7.238281 -0.363281 6.332031 -0.15625 5.375 -0.09375 C 4.414062 -0.0390625 3.5 -0.210938 2.625 -0.609375 Z M 2.78125 -5.484375 C 2.695312 -5.210938 2.613281 -4.90625 2.53125 -4.5625 C 2.457031 -4.21875 2.4375 -3.890625 2.46875 -3.578125 C 2.5 -3.265625 2.597656 -2.972656 2.765625 -2.703125 C 2.929688 -2.441406 3.203125 -2.257812 3.578125 -2.15625 C 4.335938 -1.914062 5.101562 -1.847656 5.875 -1.953125 C 6.65625 -2.054688 7.378906 -2.328125 8.046875 -2.765625 C 8.109375 -3.503906 8.15625 -4.21875 8.1875 -4.90625 C 8.226562 -5.59375 8.242188 -6.289062 8.234375 -7 C 7.972656 -7.164062 7.710938 -7.3125 7.453125 -7.4375 C 7.191406 -7.5625 6.90625 -7.644531 6.59375 -7.6875 C 6.28125 -7.738281 5.945312 -7.773438 5.59375 -7.796875 C 5.238281 -7.816406 4.894531 -7.8125 4.5625 -7.78125 C 4.53125 -7.78125 4.453125 -7.757812 4.328125 -7.71875 C 4.203125 -7.6875 4.128906 -7.660156 4.109375 -7.640625 C 3.960938 -7.566406 3.832031 -7.445312 3.71875 -7.28125 C 3.519531 -7.007812 3.34375 -6.71875 3.1875 -6.40625 C 3.039062 -6.101562 2.90625 -5.796875 2.78125 -5.484375 Z M 2.78125 -5.484375 "/></g></g></g><g fill="#000000" fill-opacity="1"><g transform="translate(120.781725, 41.233101)"><g><path d="M 2.953125 0.296875 C 2.734375 0.367188 2.5 0.34375 2.25 0.21875 C 2.007812 0.101562 1.875 -0.0703125 1.84375 -0.3125 C 1.632812 -1.632812 1.503906 -2.941406 1.453125 -4.234375 C 1.398438 -5.535156 1.375 -6.847656 1.375 -8.171875 C 1.375 -8.390625 1.429688 -8.566406 1.546875 -8.703125 C 1.671875 -8.835938 1.816406 -8.925781 1.984375 -8.96875 C 2.148438 -9.019531 2.320312 -9.03125 2.5 -9 C 2.675781 -8.96875 2.828125 -8.890625 2.953125 -8.765625 C 3.296875 -9.054688 3.660156 -9.304688 4.046875 -9.515625 C 4.441406 -9.722656 4.835938 -9.859375 5.234375 -9.921875 C 5.628906 -9.992188 6.019531 -9.972656 6.40625 -9.859375 C 6.800781 -9.742188 7.171875 -9.507812 7.515625 -9.15625 C 7.796875 -8.851562 8.039062 -8.53125 8.25 -8.1875 C 8.457031 -7.851562 8.644531 -7.5 8.8125 -7.125 C 9.039062 -7.695312 9.359375 -8.222656 9.765625 -8.703125 C 10.171875 -9.179688 10.6875 -9.503906 11.3125 -9.671875 C 11.78125 -9.785156 12.144531 -9.753906 12.40625 -9.578125 C 12.675781 -9.410156 12.9375 -9.148438 13.1875 -8.796875 C 13.4375 -8.421875 13.671875 -8.035156 13.890625 -7.640625 C 14.109375 -7.253906 14.3125 -6.859375 14.5 -6.453125 C 14.695312 -6.046875 14.882812 -5.640625 15.0625 -5.234375 C 15.25 -4.835938 15.429688 -4.441406 15.609375 -4.046875 C 15.816406 -3.609375 16 -3.175781 16.15625 -2.75 C 16.3125 -2.320312 16.414062 -1.867188 16.46875 -1.390625 C 16.5 -1.140625 16.410156 -0.925781 16.203125 -0.75 C 16.003906 -0.582031 15.789062 -0.5 15.5625 -0.5 C 15.3125 -0.5 15.101562 -0.582031 14.9375 -0.75 C 14.78125 -0.925781 14.691406 -1.140625 14.671875 -1.390625 C 14.640625 -1.753906 14.539062 -2.101562 14.375 -2.4375 C 14.21875 -2.78125 14.066406 -3.113281 13.921875 -3.4375 C 13.753906 -3.78125 13.59375 -4.128906 13.4375 -4.484375 C 13.28125 -4.847656 13.117188 -5.207031 12.953125 -5.5625 C 12.785156 -5.90625 12.609375 -6.25 12.421875 -6.59375 C 12.234375 -6.9375 12.035156 -7.273438 11.828125 -7.609375 C 11.796875 -7.648438 11.765625 -7.691406 11.734375 -7.734375 C 11.710938 -7.773438 11.6875 -7.820312 11.65625 -7.875 C 11.351562 -7.707031 11.132812 -7.546875 11 -7.390625 C 10.863281 -7.242188 10.734375 -7.046875 10.609375 -6.796875 C 10.503906 -6.566406 10.414062 -6.328125 10.34375 -6.078125 C 10.28125 -5.835938 10.226562 -5.585938 10.1875 -5.328125 C 10.09375 -4.847656 10.023438 -4.347656 9.984375 -3.828125 C 9.953125 -3.429688 9.953125 -3.050781 9.984375 -2.6875 C 10.023438 -2.332031 10.007812 -1.960938 9.9375 -1.578125 C 9.894531 -1.335938 9.753906 -1.15625 9.515625 -1.03125 C 9.285156 -0.914062 9.0625 -0.882812 8.84375 -0.9375 C 8.632812 -1 8.476562 -1.109375 8.375 -1.265625 C 8.28125 -1.421875 8.21875 -1.609375 8.1875 -1.828125 C 8.125 -2.304688 8.054688 -2.800781 7.984375 -3.3125 C 7.910156 -3.820312 7.8125 -4.328125 7.6875 -4.828125 C 7.570312 -5.328125 7.421875 -5.8125 7.234375 -6.28125 C 7.046875 -6.757812 6.800781 -7.203125 6.5 -7.609375 C 6.289062 -7.867188 6.078125 -8.046875 5.859375 -8.140625 C 5.640625 -8.234375 5.375 -8.195312 5.0625 -8.03125 C 4.71875 -7.851562 4.378906 -7.632812 4.046875 -7.375 C 3.710938 -7.125 3.421875 -6.835938 3.171875 -6.515625 C 3.179688 -5.554688 3.210938 -4.601562 3.265625 -3.65625 C 3.316406 -2.707031 3.421875 -1.757812 3.578125 -0.8125 C 3.609375 -0.550781 3.570312 -0.316406 3.46875 -0.109375 C 3.375 0.0859375 3.203125 0.222656 2.953125 0.296875 Z M 2.953125 0.296875 "/></g></g></g><g fill="#000000" fill-opacity="1"><g transform="translate(137.598844, 41.233101)"><g><path d="M 1.6875 -8.734375 C 1.96875 -9.117188 2.304688 -9.460938 2.703125 -9.765625 C 3.109375 -10.066406 3.535156 -10.300781 3.984375 -10.46875 C 4.429688 -10.644531 4.894531 -10.734375 5.375 -10.734375 C 5.851562 -10.742188 6.332031 -10.648438 6.8125 -10.453125 C 7.28125 -10.273438 7.703125 -10.03125 8.078125 -9.71875 C 8.453125 -9.414062 8.742188 -9.023438 8.953125 -8.546875 C 9.117188 -8.179688 9.210938 -7.789062 9.234375 -7.375 C 9.265625 -6.957031 9.15625 -6.578125 8.90625 -6.234375 C 8.675781 -5.921875 8.398438 -5.679688 8.078125 -5.515625 C 7.765625 -5.347656 7.421875 -5.222656 7.046875 -5.140625 C 6.679688 -5.066406 6.304688 -5.03125 5.921875 -5.03125 C 5.546875 -5.03125 5.179688 -5.039062 4.828125 -5.0625 C 4.441406 -5.070312 4.054688 -5.097656 3.671875 -5.140625 C 3.296875 -5.191406 2.910156 -5.238281 2.515625 -5.28125 C 2.640625 -4.601562 2.878906 -4.003906 3.234375 -3.484375 C 3.597656 -2.960938 4.085938 -2.566406 4.703125 -2.296875 C 4.867188 -2.234375 4.992188 -2.1875 5.078125 -2.15625 C 5.128906 -2.144531 5.171875 -2.132812 5.203125 -2.125 C 5.242188 -2.113281 5.285156 -2.109375 5.328125 -2.109375 C 5.453125 -2.097656 5.554688 -2.085938 5.640625 -2.078125 C 5.722656 -2.066406 5.800781 -2.070312 5.875 -2.09375 C 5.976562 -2.101562 6.046875 -2.113281 6.078125 -2.125 C 6.117188 -2.132812 6.160156 -2.144531 6.203125 -2.15625 C 6.367188 -2.207031 6.515625 -2.257812 6.640625 -2.3125 C 6.773438 -2.375 6.929688 -2.472656 7.109375 -2.609375 C 7.203125 -2.679688 7.320312 -2.789062 7.46875 -2.9375 C 7.613281 -3.09375 7.738281 -3.226562 7.84375 -3.34375 C 8 -3.5625 8.1875 -3.707031 8.40625 -3.78125 C 8.625 -3.851562 8.84375 -3.820312 9.0625 -3.6875 C 9.257812 -3.570312 9.398438 -3.390625 9.484375 -3.140625 C 9.566406 -2.890625 9.53125 -2.660156 9.375 -2.453125 C 8.945312 -1.867188 8.4375 -1.367188 7.84375 -0.953125 C 7.25 -0.546875 6.566406 -0.328125 5.796875 -0.296875 C 5.179688 -0.265625 4.585938 -0.367188 4.015625 -0.609375 C 3.453125 -0.859375 2.953125 -1.195312 2.515625 -1.625 C 1.972656 -2.144531 1.546875 -2.75 1.234375 -3.4375 C 0.921875 -4.125 0.75 -4.832031 0.71875 -5.5625 C 0.582031 -5.664062 0.476562 -5.796875 0.40625 -5.953125 C 0.34375 -6.109375 0.320312 -6.269531 0.34375 -6.4375 C 0.363281 -6.601562 0.421875 -6.753906 0.515625 -6.890625 C 0.609375 -7.035156 0.742188 -7.128906 0.921875 -7.171875 C 1.085938 -7.722656 1.34375 -8.242188 1.6875 -8.734375 Z M 7.078125 -8.1875 C 6.921875 -8.394531 6.664062 -8.582031 6.3125 -8.75 C 6.03125 -8.863281 5.695312 -8.921875 5.3125 -8.921875 C 4.9375 -8.921875 4.613281 -8.859375 4.34375 -8.734375 C 4 -8.566406 3.691406 -8.335938 3.421875 -8.046875 C 3.148438 -7.753906 2.929688 -7.425781 2.765625 -7.0625 C 3.128906 -7.019531 3.488281 -6.972656 3.84375 -6.921875 C 4.207031 -6.878906 4.566406 -6.851562 4.921875 -6.84375 C 5.117188 -6.84375 5.3125 -6.84375 5.5 -6.84375 C 5.695312 -6.84375 5.894531 -6.847656 6.09375 -6.859375 C 6.15625 -6.859375 6.210938 -6.859375 6.265625 -6.859375 C 6.316406 -6.867188 6.375 -6.875 6.4375 -6.875 C 6.570312 -6.90625 6.671875 -6.925781 6.734375 -6.9375 C 6.804688 -6.945312 6.878906 -6.96875 6.953125 -7 C 7.015625 -7.007812 7.085938 -7.03125 7.171875 -7.0625 C 7.242188 -7.09375 7.285156 -7.113281 7.296875 -7.125 C 7.316406 -7.144531 7.34375 -7.160156 7.375 -7.171875 L 7.4375 -7.4375 C 7.414062 -7.5 7.398438 -7.554688 7.390625 -7.609375 C 7.378906 -7.660156 7.359375 -7.710938 7.328125 -7.765625 C 7.316406 -7.804688 7.285156 -7.867188 7.234375 -7.953125 C 7.179688 -8.046875 7.128906 -8.125 7.078125 -8.1875 Z M 7.078125 -8.1875 "/></g></g></g></svg>